<svg xmlns="http://www.w3.org/2000/svg" viewBox="0 0 512 512" width="512" height="512"
  preserveAspectRatio="none">
  <path fill="rgba(202, 163, 46, 0.071)"
    d="M494.5,18.4c-6-10.5-4.4,6.9-13.4,11c-6.3,2.9-5.9-14.6-7.1-21c-1.2-6.5-9.9,7.4-15.2,13.3 C454,26.9,455,7.3,455,7.3l2.8-2.1c0,0-2.6,18.1,1.9,11.5c4.5-6.6,14.5-18.2,16.1-10.7c1.3,6.4,1.5,27.3,6.6,18.8 c4.9-8.1,6.9-19.6,12.9-9.1c5.9,10.5,8,3.3,8,3.3l2.3,0.6C505.7,19.6,500.4,28.9,494.5,18.4z M464.8,45.1l0.7,5.3l-24.6,4.8 l5.8,24.2l-31.6,6.5l2.3,22.5l-6.1,1.7l-2.8-28.7l30.9-6.3l-5.9-24.9L464.8,45.1z M387.8,64c-7.9,0-14.4-6.4-14.4-14.4 c0-7.9,6.4-14.4,14.4-14.4c7.9,0,14.4,6.4,14.4,14.4C402.2,57.5,395.7,64,387.8,64z M387.8,39.6c-5.5,0-10,4.5-10,10s4.5,10,10,10 c5.5,0,10-4.5,10-10S393.3,39.6,387.8,39.6z M363.4,176.6l-11.1,7.7l-9.5-14.7l-10.9,5.6l-2.1-2.8l14-7.1l9.3,14.4l11.4-7.9 l8.8,14.9l-2.6,1.4L363.4,176.6z M282.6,77.8l65.6,34.8l-55.4,34.7L282.6,77.8z M336.5,112.9l-45.9-24.3l7.2,48.5L336.5,112.9z M337.8,74.7l-16.2-4.6l3.2-18.1L310,50l3.9-18.2l3,0.8L314.4,47l14.3,2l-3.2,18.5l12.7,3.6L337.8,74.7z M264.5,175.9 c15.3-5.5,30.4-18.8,27.1,1.6c-3.4,20.4,7.1,13.1,7.1,13.1l2.5,3.3c0,0-17,6.8-13.7-13.7c3.3-20.4-13.4,4.5-29.8,0.3 c-11.5-3,7.8-25.8,13.1-35.8c5.3-10-21.1-0.8-34.7,1.4c-11.8,1.9,10.7-23.2,10.7-23.2l6,0.3c0,0-23,21.5-9.8,17.5 c13.2-4,39.1-8.7,33.1,3C270.8,153.7,248.6,181.7,264.5,175.9z M248.1,20.4L237,28.1l-9.5-14.7l-10.9,5.6l-2.1-2.8l14-7.1l9.3,14.4 l11.4-7.9l8.8,14.9l-2.6,1.4L248.1,20.4z M197.6,66.4L188.5,32l35.1,13.8L197.6,66.4z M200.1,59l15.5-12.2l-20.9-8.2L200.1,59z M216.2,152.4c0,21.8-17.6,39.4-39.4,39.4c-21.8,0-39.4-17.6-39.4-39.4c0-21.8,17.6-39.4,39.4-39.4 C198.5,113,216.2,130.7,216.2,152.4z M176.8,120.8c-17.5,0-31.6,14.2-31.6,31.6c0,17.5,14.2,31.6,31.6,31.6 c17.5,0,31.6-14.2,31.6-31.6C208.4,134.9,194.3,120.8,176.8,120.8z M134.4,26.9l4.6,30.1L114,47.2L134.4,26.9z M132.2,34l-12.1,12.1 l14.8,5.8L132.2,34z M91.5,177.4l25.3,17l-3.5,7.8L81,180.5l20.1-37.5l-31-15.3l21.8-37.1l6.1,3.9l-16.1,29.7l30.1,14.8L91.5,177.4z M60.9,66.2l-31.6,6.5l2.3,22.5l-6.1,1.7l-2.8-28.7l30.9-6.3l-5.9-24.9L79,31.8l0.7,5.3L55.1,42L60.9,66.2z M46,197.5 c7.7,1.2-4.3-14-8.9-22.3c-3.9-7.3,17.6,1.7,17.6,1.7l1.2,4c0,0-19.3-10.2-13.7-2.5c5.6,7.7,14.7,23.5,5.6,22.2 c-7.7-1.1-31.1-9.3-23.7-0.2c7.1,8.7,19.2,15.6,5.1,18c-14.1,2.4-6.9,7.6-6.9,7.6l-1.6,2.4c0,0-8.3-9.5,5.8-12 c14.1-2.5-6-7.7-7-19.4C18.9,188.9,38.2,196.3,46,197.5z M34.8,253.7c0,7.9-6.4,14.4-14.4,14.4c-7.9,0-14.4-6.4-14.4-14.4 c0-7.9,6.4-14.4,14.4-14.4C28.3,239.3,34.8,245.8,34.8,253.7z M10.4,253.7c0,5.5,4.5,10,10,10s10-4.5,10-10s-4.5-10-10-10 S10.4,248.2,10.4,253.7z M22.1,466.5c0,0-2.6,18.1,1.9,11.5c4.5-6.6,14.5-18.2,16.1-10.7c1.3,6.4,1.5,27.3,6.6,18.8 c4.9-8.1,6.9-19.6,12.9-9.1c5.9,10.5,8,3.3,8,3.3l2.3,0.6c0,0-5.2,9.3-11.2-1.2s-4.4,6.9-13.4,11c-6.3,2.9-5.9-14.6-7.1-21 c-1.2-6.5-9.9,7.4-15.2,13.3c-4.7,5.2-3.7-14.4-3.7-14.4L22.1,466.5z M33.4,412.5c0-20.4,16.5-36.9,36.9-36.9s36.9,16.5,36.9,36.9 c0,20.4-16.5,36.9-36.9,36.9S33.4,432.9,33.4,412.5z M70.1,442.3c16.3,0,29.6-13.3,29.6-29.6c0-16.3-13.3-29.6-29.6-29.6 s-29.6,13.3-29.6,29.6C40.5,429,53.8,442.3,70.1,442.3z M100.9,224.3l3.4-5.3c0,0,18.6,20.5-12.2,26.7 c-30.8,6.1,13.4,16.6,16.2,42.2c1.9,17.9-40.8,2.6-57.8,0.3c-17-2.3,10,30.4,20.3,48.6c8.9,15.8-38.6-2.8-38.6-2.8l-2.8-8.7 c0,0,42.7,21.3,30.1,4.7s-33.1-50.9-13.3-48.6c17,2,68.6,18.8,51.9-0.8c-15.9-18.7-42.8-33.2-12-39.3 C116.9,235.3,100.9,224.3,100.9,224.3z M150.4,302.2l1,4.8l-22,6.4l7.2,21.6l-28.3,8.5l3.9,20.4l-5.5,2.1l-4.9-26l27.7-8.2 l-7.4-22.3L150.4,302.2z M124.9,497.1l9.8-33.1l42.4,14.1l12.9-28.6l8.6,2.2L182,488.2l-41.5-13.8l-10.1,34l-41.3-15.7l2.9-6.9 L124.9,497.1z M159.1,436.5l41-53.3l6,4.6l-41,53.3L159.1,436.5z M191.6,233.6l8.6,56.6l-46.9-18.3L191.6,233.6z M188.1,243.2 l-26.7,26.9l32.7,12.9L188.1,243.2z M188.6,324.6l36.2,14.9l-27.3,21.1L188.6,324.6z M216.6,340.4l-21.9-8.9l5.4,21.4L216.6,340.4z M241.7,473.4l11.1-12.1l15.2,14.9l11.5-9.5l3.2,2.7L268,481.6L253.2,467l-11.4,12.4l-14.4-15.3l2.7-2.3L241.7,473.4z M243.8,360 l48.3,27.4l-3.1,5.4l-48.3-27.4L243.8,360z M214.8,214.8l6.4-8.1l71.1,56.7l-6.4,8.1L214.8,214.8z M266.4,314.2 c0-13,10.6-23.6,23.6-23.6c13,0,23.6,10.6,23.6,23.6c0,13-10.6,23.6-23.6,23.6C277,337.8,266.4,327.2,266.4,314.2z M308.5,314.4 c0-10-8.1-18.1-18.1-18.1s-18.1,8.1-18.1,18.1c0,10,8.1,18.1,18.1,18.1S308.5,324.4,308.5,314.4z M390.2,127.2l31,59.7l-6.7,3.5 l-31-59.7L390.2,127.2z M329.2,227.6l38.4,20.9l15.9-31.7l38,22.6l-4.1,6.3L387,228.8l-15.4,30.8l-39.3-21.3l-17.6,25.9l-8-3.6 L329.2,227.6z M368.3,289.4c0-7.9,6.4-14.4,14.4-14.4c7.9,0,14.4,6.4,14.4,14.4c0,7.9-6.4,14.4-14.4,14.4 C374.7,303.8,368.3,297.4,368.3,289.4z M392.6,289.4c0-5.5-4.5-10-10-10c-5.5,0-10,4.5-10,10c0,5.5,4.5,10,10,10 C388.2,299.4,392.6,294.9,392.6,289.4z M386.4,390.4c17.7,1.6-11.8-31.2-23.3-49.6c-10-16,40.3,1.2,40.3,1.2l3.3,8.9 c0,0-45.2-20.3-31.4-3.6c13.8,16.7,36.6,51.4,15.9,49.9c-17.8-1.3-72-16.5-53.9,3.1c17.4,18.7,45.9,32.6,14.2,40.3 c-31.7,7.7-14.7,18.3-14.7,18.3l-3.3,5.6c0,0-20.2-20.5,11.5-28.2c31.7-7.7-14.7-16.6-18.7-43.1 C323.6,374.8,368.7,388.8,386.4,390.4z M347,479.2c7.9,0,14.4,6.4,14.4,14.4c0,7.9-6.4,14.4-14.4,14.4c-7.9,0-14.4-6.4-14.4-14.4 C332.6,485.6,339,479.2,347,479.2z M347,503.5c5.5,0,10-4.5,10-10c0-5.5-4.5-10-10-10c-5.5,0-10,4.5-10,10 C337,499,341.5,503.5,347,503.5z M399.4,451.4l4.4,1l-3.8,18.6l20.8,2.6l-4.7,24l18.4,4.6l-0.5,4.8l-23.5-5.9l4.6-23.5l-21.4-2.7 L399.4,451.4z M459.4,487.6l-9-35.9l36.2,14.9L459.4,487.6z M462.4,480l16.5-12.6l-21.9-8.9L462.4,480z M480.6,342.8l12.1,79.5 l-65.8-25.7L480.6,342.8z M476.9,354l-40.4,40.4l49.5,19.3L476.9,354z M482.7,305.2c-6-10.5-4.4,6.9-13.4,11 c-6.3,2.9-5.9-14.6-7.1-21c-1.2-6.5-9.9,7.4-15.2,13.3c-4.7,5.2-3.7-14.4-3.7-14.4l2.8-2.1c0,0-2.6,18.1,1.9,11.5 c4.5-6.6,14.5-18.2,16.1-10.7c1.3,6.4,1.5,27.3,6.6,18.8c4.9-8.1,6.9-19.6,12.9-9.1c5.9,10.5,8,3.3,8,3.3l2.3,0.6 C493.9,306.4,488.7,315.7,482.7,305.2z M478.7,290.1l-9-35.9L506,269L478.7,290.1z M481.3,282.5l16.5-12.6l-21.9-8.9L481.3,282.5z M465.4,137.4c14.5,7.6,40.6,25.2,25.7,30.1c-12.8,4.3-55.1,9.5-36.7,17.9c17.6,8,41.6,9.4,21.7,24c-19.9,14.6-4.9,17.1-4.9,17.1 l-0.6,4.9c0,0-20.1-8.4-0.2-23c19.9-14.6-15.1-7.3-25.6-24.6c-7.4-12.1,28.2-15.5,41-19.6c12.8-4.1-17.3-18.3-30.7-27.8 c-11.6-8.2,28.5-10.9,28.5-10.9l4.9,5.2C488.4,130.7,450.9,129.8,465.4,137.4z" />
</svg>